<svg width="74" height="36" viewBox="0 0 74 36" fill="none" xmlns="http://www.w3.org/2000/svg">
<rect width="74" height="36" rx="4" fill="#F4F6F9" fill-opacity="0.15"/>
<g clip-path="url(#clip0_21_1436)">
<path fill-rule="evenodd" clip-rule="evenodd" d="M15.2338 10.828C15.7101 10.8251 17.1257 10.6971 17.7253 12.7292C18.1292 14.098 18.7726 16.3401 19.6556 19.4557H20.015C20.9619 16.1711 21.6124 13.9289 21.9664 12.7292C22.5723 10.6759 24.0869 10.828 24.6928 10.828L29.3671 10.828V25.4286H24.6029V16.8243H24.2834L21.6275 25.4286H18.0431L15.3872 16.8179H15.0677V25.4286H10.3034V10.828L15.2338 10.828ZM36.2086 10.828V19.4388H36.5886L39.8192 12.3582C40.4463 10.9492 41.783 10.828 41.783 10.828H46.3933V25.4287H41.5296V16.8179H41.1495L37.9823 23.8985C37.3552 25.3011 35.9552 25.4287 35.9552 25.4287H31.3448V10.828H36.2086ZM63.2048 17.7664C62.5263 19.6969 60.3957 21.0794 58.0369 21.0794H52.9362V25.4287H48.3111V17.7664H63.2048Z" fill="white"/>
<path fill-rule="evenodd" clip-rule="evenodd" d="M58.2592 10.8268H48.0677C48.3102 14.0774 51.0982 16.8602 53.9841 16.8602H63.5253C64.0759 14.1585 62.1805 10.8268 58.2592 10.8268Z" fill="white"/>
</g>
<defs>
<clipPath id="clip0_21_1436">
<rect width="54" height="16" fill="white" transform="translate(10 10)"/>
</clipPath>
</defs>
</svg>
