<svg width="47" height="36" viewBox="0 0 47 36" fill="none" xmlns="http://www.w3.org/2000/svg">
<rect width="47" height="36" rx="4" fill="#F4F6F9" fill-opacity="0.15"/>
<g clip-path="url(#clip0_21_1431)">
<path d="M28.791 25.8158H20.8295V10.9587H28.791V25.8158Z" fill="#B1B4B9"/>
<path d="M20.4332 18C20.4332 15.4483 21.6222 13.1753 23.4738 11.7105C22.1197 10.6393 20.4109 10 18.5538 10C14.1572 10 10.5933 13.5817 10.5933 18C10.5933 22.4184 14.1572 26 18.5538 26C20.4109 26 22.1197 25.3607 23.4738 24.2895C21.6222 22.8247 20.4332 20.5517 20.4332 18Z" fill="#F5F3F0"/>
<path d="M36.3472 18C36.3472 22.4184 32.7832 26 28.3867 26C26.5295 26 24.8207 25.3607 23.4662 24.2895C25.3183 22.8247 26.5072 20.5517 26.5072 18C26.5072 15.4483 25.3183 13.1753 23.4662 11.7105C24.8207 10.6393 26.5295 10 28.3867 10C32.7832 10 36.3472 13.5817 36.3472 18Z" fill="#7A7A7E"/>
</g>
<defs>
<clipPath id="clip0_21_1431">
<rect width="27" height="16" fill="white" transform="translate(10 10)"/>
</clipPath>
</defs>
</svg>
