<svg width="67" height="36" viewBox="0 0 67 36" fill="none" xmlns="http://www.w3.org/2000/svg">
<rect width="67" height="36" rx="4" fill="#F4F6F9" fill-opacity="0.15"/>
<g clip-path="url(#clip0_21_1424)">
<path d="M30.2021 25.7304H26.4256L28.7877 11.0903H32.564L30.2021 25.7304Z" fill="white"/>
<path d="M43.8924 11.4479C43.1475 11.1517 41.966 10.8246 40.5052 10.8246C36.7757 10.8246 34.1495 12.8181 34.1333 15.6681C34.1024 17.7708 36.0137 18.9387 37.4432 19.6399C38.9043 20.3563 39.4009 20.8239 39.4009 21.4626C39.3861 22.4433 38.2203 22.8955 37.133 22.8955C35.6252 22.8955 34.8173 22.6623 33.5896 22.1167L33.0923 21.8827L32.5638 25.1691C33.4496 25.5736 35.0815 25.9326 36.7757 25.9483C40.7384 25.9483 43.3181 23.9857 43.3487 20.9485C43.3638 19.2819 42.3545 18.005 40.1787 16.9615C38.8578 16.2916 38.0489 15.8399 38.0489 15.1545C38.0644 14.5315 38.733 13.8933 40.2241 13.8933C41.4519 13.862 42.3539 14.1578 43.0373 14.4538L43.3789 14.6093L43.8924 11.4479Z" fill="white"/>
<path d="M48.9115 20.5439C49.2225 19.7028 50.4192 16.4477 50.4192 16.4477C50.4035 16.479 50.7296 15.5911 50.9161 15.0461L51.18 16.3076C51.18 16.3076 51.8952 19.8119 52.0504 20.5439C51.4603 20.5439 49.6573 20.5439 48.9115 20.5439ZM53.5731 11.0903H50.652C49.7512 11.0903 49.0667 11.3548 48.6781 12.305L43.0685 25.7301H47.0311C47.0311 25.7301 47.6835 23.9232 47.8237 23.534C48.2584 23.534 52.1132 23.534 52.6725 23.534C52.7809 24.0481 53.1231 25.7301 53.1231 25.7301H56.6198L53.5731 11.0903Z" fill="white"/>
<path d="M23.2712 11.0903L19.5727 21.0734L19.1685 19.0487C18.4848 16.7125 16.3404 14.1742 13.9473 12.9121L17.3349 25.7148H21.3285L27.2646 11.0903H23.2712Z" fill="white"/>
<path d="M16.1382 11.0903H10.0622L10 11.3861C14.7397 12.601 17.8788 15.5295 19.1685 19.0493L17.8476 12.3209C17.6301 11.3859 16.9618 11.1211 16.1382 11.0903Z" fill="#B1B4B9"/>
</g>
<defs>
<clipPath id="clip0_21_1424">
<rect width="47" height="16" fill="white" transform="translate(10 10)"/>
</clipPath>
</defs>
</svg>
