<svg width="25" height="24" viewBox="0 0 25 24" fill="none" xmlns="http://www.w3.org/2000/svg">
<path d="M6.62399 7L8.15899 14.246C8.36999 15.244 9.29899 15.923 10.315 15.822L17.131 15.14C17.971 15.056 18.667 14.454 18.872 13.635L20.22 8.243C20.378 7.611 19.901 7 19.25 7H10.937" stroke="white" stroke-width="2" stroke-linecap="round" stroke-linejoin="round"/>
<path d="M6.624 7L5.974 4H4.25" stroke="white" stroke-width="2" stroke-linecap="round" stroke-linejoin="round"/>
<path d="M17.859 19.267C17.657 19.267 17.493 19.431 17.495 19.633C17.495 19.835 17.659 19.999 17.861 19.999C18.063 19.999 18.227 19.835 18.227 19.633C18.226 19.431 18.062 19.267 17.859 19.267" stroke="white" stroke-width="2" stroke-linecap="round" stroke-linejoin="round"/>
<path d="M9.447 19.267C9.245 19.267 9.081 19.431 9.083 19.633C9.081 19.836 9.246 20 9.448 20C9.65 20 9.814 19.836 9.814 19.634C9.814 19.431 9.65 19.267 9.447 19.267" stroke="white" stroke-width="2" stroke-linecap="round" stroke-linejoin="round"/>
</svg>
