<svg width="25" height="24" viewBox="0 0 25 24" fill="none" xmlns="http://www.w3.org/2000/svg">
<path d="M6.37402 7L7.90902 14.246C8.12002 15.244 9.04902 15.923 10.065 15.822L16.881 15.14C17.721 15.056 18.417 14.454 18.622 13.635L19.97 8.243C20.128 7.611 19.651 7 19 7H10.687" stroke="#2E1066" stroke-width="2" stroke-linecap="round" stroke-linejoin="round"/>
<path d="M6.37402 7L7.90902 14.246C8.12002 15.244 9.04902 15.923 10.065 15.822L16.881 15.14C17.721 15.056 18.417 14.454 18.622 13.635L19.97 8.243C20.128 7.611 19.651 7 19 7H10.687" stroke="#410F9E" stroke-width="2" stroke-linecap="round" stroke-linejoin="round"/>
<path d="M6.37402 7L7.90902 14.246C8.12002 15.244 9.04902 15.923 10.065 15.822L16.881 15.14C17.721 15.056 18.417 14.454 18.622 13.635L19.97 8.243C20.128 7.611 19.651 7 19 7H10.687" stroke="#453888" stroke-width="2" stroke-linecap="round" stroke-linejoin="round"/>
<path d="M6.37402 7L7.90902 14.246C8.12002 15.244 9.04902 15.923 10.065 15.822L16.881 15.14C17.721 15.056 18.417 14.454 18.622 13.635L19.97 8.243C20.128 7.611 19.651 7 19 7H10.687" stroke="#5946D7" stroke-width="2" stroke-linecap="round" stroke-linejoin="round"/>
<path d="M6.37402 7L7.90902 14.246C8.12002 15.244 9.04902 15.923 10.065 15.822L16.881 15.14C17.721 15.056 18.417 14.454 18.622 13.635L19.97 8.243C20.128 7.611 19.651 7 19 7H10.687" stroke="#6B59CC" stroke-width="2" stroke-linecap="round" stroke-linejoin="round"/>
<path d="M6.374 7L5.724 4H4" stroke="#2E1066" stroke-width="2" stroke-linecap="round" stroke-linejoin="round"/>
<path d="M6.374 7L5.724 4H4" stroke="#410F9E" stroke-width="2" stroke-linecap="round" stroke-linejoin="round"/>
<path d="M6.374 7L5.724 4H4" stroke="#453888" stroke-width="2" stroke-linecap="round" stroke-linejoin="round"/>
<path d="M6.374 7L5.724 4H4" stroke="#5946D7" stroke-width="2" stroke-linecap="round" stroke-linejoin="round"/>
<path d="M6.374 7L5.724 4H4" stroke="#6B59CC" stroke-width="2" stroke-linecap="round" stroke-linejoin="round"/>
<path d="M17.609 19.267C17.407 19.267 17.243 19.431 17.245 19.633C17.245 19.835 17.409 19.999 17.611 19.999C17.813 19.999 17.977 19.835 17.977 19.633C17.976 19.431 17.812 19.267 17.609 19.267" stroke="#2E1066" stroke-width="2" stroke-linecap="round" stroke-linejoin="round"/>
<path d="M17.609 19.267C17.407 19.267 17.243 19.431 17.245 19.633C17.245 19.835 17.409 19.999 17.611 19.999C17.813 19.999 17.977 19.835 17.977 19.633C17.976 19.431 17.812 19.267 17.609 19.267" stroke="#410F9E" stroke-width="2" stroke-linecap="round" stroke-linejoin="round"/>
<path d="M17.609 19.267C17.407 19.267 17.243 19.431 17.245 19.633C17.245 19.835 17.409 19.999 17.611 19.999C17.813 19.999 17.977 19.835 17.977 19.633C17.976 19.431 17.812 19.267 17.609 19.267" stroke="#453888" stroke-width="2" stroke-linecap="round" stroke-linejoin="round"/>
<path d="M17.609 19.267C17.407 19.267 17.243 19.431 17.245 19.633C17.245 19.835 17.409 19.999 17.611 19.999C17.813 19.999 17.977 19.835 17.977 19.633C17.976 19.431 17.812 19.267 17.609 19.267" stroke="#5946D7" stroke-width="2" stroke-linecap="round" stroke-linejoin="round"/>
<path d="M17.609 19.267C17.407 19.267 17.243 19.431 17.245 19.633C17.245 19.835 17.409 19.999 17.611 19.999C17.813 19.999 17.977 19.835 17.977 19.633C17.976 19.431 17.812 19.267 17.609 19.267" stroke="#6B59CC" stroke-width="2" stroke-linecap="round" stroke-linejoin="round"/>
<path d="M9.197 19.267C8.995 19.267 8.831 19.431 8.833 19.633C8.831 19.836 8.996 20 9.198 20C9.4 20 9.564 19.836 9.564 19.634C9.564 19.431 9.4 19.267 9.197 19.267" stroke="#2E1066" stroke-width="2" stroke-linecap="round" stroke-linejoin="round"/>
<path d="M9.197 19.267C8.995 19.267 8.831 19.431 8.833 19.633C8.831 19.836 8.996 20 9.198 20C9.4 20 9.564 19.836 9.564 19.634C9.564 19.431 9.4 19.267 9.197 19.267" stroke="#410F9E" stroke-width="2" stroke-linecap="round" stroke-linejoin="round"/>
<path d="M9.197 19.267C8.995 19.267 8.831 19.431 8.833 19.633C8.831 19.836 8.996 20 9.198 20C9.4 20 9.564 19.836 9.564 19.634C9.564 19.431 9.4 19.267 9.197 19.267" stroke="#453888" stroke-width="2" stroke-linecap="round" stroke-linejoin="round"/>
<path d="M9.197 19.267C8.995 19.267 8.831 19.431 8.833 19.633C8.831 19.836 8.996 20 9.198 20C9.4 20 9.564 19.836 9.564 19.634C9.564 19.431 9.4 19.267 9.197 19.267" stroke="#5946D7" stroke-width="2" stroke-linecap="round" stroke-linejoin="round"/>
<path d="M9.197 19.267C8.995 19.267 8.831 19.431 8.833 19.633C8.831 19.836 8.996 20 9.198 20C9.4 20 9.564 19.836 9.564 19.634C9.564 19.431 9.4 19.267 9.197 19.267" stroke="#6B59CC" stroke-width="2" stroke-linecap="round" stroke-linejoin="round"/>
</svg>
