<svg width="32" height="32" viewBox="0 0 32 32" fill="none" xmlns="http://www.w3.org/2000/svg">
<path d="M7.83197 9.33337L9.87864 18.9947C10.16 20.3254 11.3986 21.2307 12.7533 21.096L21.8413 20.1867C22.9613 20.0747 23.8893 19.272 24.1626 18.18L25.96 10.9907C26.1706 10.148 25.5346 9.33337 24.6666 9.33337H13.5826" stroke="#2E1066" stroke-width="2" stroke-linecap="round" stroke-linejoin="round"/>
<path d="M7.83197 9.33337L9.87864 18.9947C10.16 20.3254 11.3986 21.2307 12.7533 21.096L21.8413 20.1867C22.9613 20.0747 23.8893 19.272 24.1626 18.18L25.96 10.9907C26.1706 10.148 25.5346 9.33337 24.6666 9.33337H13.5826" stroke="#410F9E" stroke-width="2" stroke-linecap="round" stroke-linejoin="round"/>
<path d="M7.83197 9.33337L9.87864 18.9947C10.16 20.3254 11.3986 21.2307 12.7533 21.096L21.8413 20.1867C22.9613 20.0747 23.8893 19.272 24.1626 18.18L25.96 10.9907C26.1706 10.148 25.5346 9.33337 24.6666 9.33337H13.5826" stroke="#453888" stroke-width="2" stroke-linecap="round" stroke-linejoin="round"/>
<path d="M7.83197 9.33337L9.87864 18.9947C10.16 20.3254 11.3986 21.2307 12.7533 21.096L21.8413 20.1867C22.9613 20.0747 23.8893 19.272 24.1626 18.18L25.96 10.9907C26.1706 10.148 25.5346 9.33337 24.6666 9.33337H13.5826" stroke="#5946D7" stroke-width="2" stroke-linecap="round" stroke-linejoin="round"/>
<path d="M7.83197 9.33337L9.87864 18.9947C10.16 20.3254 11.3986 21.2307 12.7533 21.096L21.8413 20.1867C22.9613 20.0747 23.8893 19.272 24.1626 18.18L25.96 10.9907C26.1706 10.148 25.5346 9.33337 24.6666 9.33337H13.5826" stroke="#6B59CC" stroke-width="2" stroke-linecap="round" stroke-linejoin="round"/>
<path d="M7.83202 9.33337L6.96535 5.33337H4.66669" stroke="#2E1066" stroke-width="2" stroke-linecap="round" stroke-linejoin="round"/>
<path d="M7.83202 9.33337L6.96535 5.33337H4.66669" stroke="#410F9E" stroke-width="2" stroke-linecap="round" stroke-linejoin="round"/>
<path d="M7.83202 9.33337L6.96535 5.33337H4.66669" stroke="#453888" stroke-width="2" stroke-linecap="round" stroke-linejoin="round"/>
<path d="M7.83202 9.33337L6.96535 5.33337H4.66669" stroke="#5946D7" stroke-width="2" stroke-linecap="round" stroke-linejoin="round"/>
<path d="M7.83202 9.33337L6.96535 5.33337H4.66669" stroke="#6B59CC" stroke-width="2" stroke-linecap="round" stroke-linejoin="round"/>
<path d="M22.812 25.6893C22.5427 25.6893 22.324 25.908 22.3267 26.1773C22.3267 26.4466 22.5454 26.6653 22.8147 26.6653C23.084 26.6653 23.3027 26.4466 23.3027 26.1773C23.3014 25.908 23.0827 25.6893 22.812 25.6893" stroke="#2E1066" stroke-width="2" stroke-linecap="round" stroke-linejoin="round"/>
<path d="M22.812 25.6893C22.5427 25.6893 22.324 25.908 22.3267 26.1773C22.3267 26.4466 22.5454 26.6653 22.8147 26.6653C23.084 26.6653 23.3027 26.4466 23.3027 26.1773C23.3014 25.908 23.0827 25.6893 22.812 25.6893" stroke="#410F9E" stroke-width="2" stroke-linecap="round" stroke-linejoin="round"/>
<path d="M22.812 25.6893C22.5427 25.6893 22.324 25.908 22.3267 26.1773C22.3267 26.4466 22.5454 26.6653 22.8147 26.6653C23.084 26.6653 23.3027 26.4466 23.3027 26.1773C23.3014 25.908 23.0827 25.6893 22.812 25.6893" stroke="#453888" stroke-width="2" stroke-linecap="round" stroke-linejoin="round"/>
<path d="M22.812 25.6893C22.5427 25.6893 22.324 25.908 22.3267 26.1773C22.3267 26.4466 22.5454 26.6653 22.8147 26.6653C23.084 26.6653 23.3027 26.4466 23.3027 26.1773C23.3014 25.908 23.0827 25.6893 22.812 25.6893" stroke="#5946D7" stroke-width="2" stroke-linecap="round" stroke-linejoin="round"/>
<path d="M22.812 25.6893C22.5427 25.6893 22.324 25.908 22.3267 26.1773C22.3267 26.4466 22.5454 26.6653 22.8147 26.6653C23.084 26.6653 23.3027 26.4466 23.3027 26.1773C23.3014 25.908 23.0827 25.6893 22.812 25.6893" stroke="#6B59CC" stroke-width="2" stroke-linecap="round" stroke-linejoin="round"/>
<path d="M11.596 25.6894C11.3267 25.6894 11.108 25.908 11.1107 26.1774C11.108 26.448 11.328 26.6667 11.5973 26.6667C11.8667 26.6667 12.0853 26.448 12.0853 26.1787C12.0853 25.908 11.8667 25.6894 11.596 25.6894" stroke="#2E1066" stroke-width="2" stroke-linecap="round" stroke-linejoin="round"/>
<path d="M11.596 25.6894C11.3267 25.6894 11.108 25.908 11.1107 26.1774C11.108 26.448 11.328 26.6667 11.5973 26.6667C11.8667 26.6667 12.0853 26.448 12.0853 26.1787C12.0853 25.908 11.8667 25.6894 11.596 25.6894" stroke="#410F9E" stroke-width="2" stroke-linecap="round" stroke-linejoin="round"/>
<path d="M11.596 25.6894C11.3267 25.6894 11.108 25.908 11.1107 26.1774C11.108 26.448 11.328 26.6667 11.5973 26.6667C11.8667 26.6667 12.0853 26.448 12.0853 26.1787C12.0853 25.908 11.8667 25.6894 11.596 25.6894" stroke="#453888" stroke-width="2" stroke-linecap="round" stroke-linejoin="round"/>
<path d="M11.596 25.6894C11.3267 25.6894 11.108 25.908 11.1107 26.1774C11.108 26.448 11.328 26.6667 11.5973 26.6667C11.8667 26.6667 12.0853 26.448 12.0853 26.1787C12.0853 25.908 11.8667 25.6894 11.596 25.6894" stroke="#5946D7" stroke-width="2" stroke-linecap="round" stroke-linejoin="round"/>
<path d="M11.596 25.6894C11.3267 25.6894 11.108 25.908 11.1107 26.1774C11.108 26.448 11.328 26.6667 11.5973 26.6667C11.8667 26.6667 12.0853 26.448 12.0853 26.1787C12.0853 25.908 11.8667 25.6894 11.596 25.6894" stroke="#6B59CC" stroke-width="2" stroke-linecap="round" stroke-linejoin="round"/>
</svg>
