<svg width="14" height="19" viewBox="0 0 14 19" fill="none" xmlns="http://www.w3.org/2000/svg">
<path d="M11.7735 10.407C11.1666 11.6369 10.3444 12.8622 9.50357 13.9624C8.70597 14.9997 7.85313 15.9932 6.94875 16.9388C6.04435 15.9932 5.19151 14.9997 4.39393 13.9624C3.55313 12.8622 2.73086 11.6369 2.124 10.407C1.5102 9.16431 1.15813 8.0004 1.15813 7.0021C1.15813 5.46633 1.76821 3.99346 2.85416 2.9075C3.94011 1.82155 5.41298 1.21147 6.94875 1.21147C8.48452 1.21147 9.95739 1.82155 11.0433 2.9075C12.1293 3.99346 12.7394 5.46633 12.7394 7.0021C12.7394 8.0004 12.3861 9.16431 11.7735 10.407ZM6.94875 18.5833C6.94875 18.5833 13.8975 11.9982 13.8975 7.0021C13.8975 5.15917 13.1654 3.39173 11.8623 2.08859C10.5591 0.785443 8.79167 0.0533447 6.94875 0.0533447C5.10583 0.0533447 3.33839 0.785443 2.03524 2.08859C0.732098 3.39173 2.74617e-08 5.15917 0 7.0021C0 11.9982 6.94875 18.5833 6.94875 18.5833Z" fill="white"/>
<path d="M6.94874 9.31834C6.33443 9.31834 5.74529 9.0743 5.3109 8.63992C4.87652 8.20554 4.63249 7.61639 4.63249 7.00209C4.63249 6.38778 4.87652 5.79863 5.3109 5.36425C5.74529 4.92987 6.33443 4.68584 6.94874 4.68584C7.56305 4.68584 8.15219 4.92987 8.58658 5.36425C9.02096 5.79863 9.26499 6.38778 9.26499 7.00209C9.26499 7.61639 9.02096 8.20554 8.58658 8.63992C8.15219 9.0743 7.56305 9.31834 6.94874 9.31834ZM6.94874 10.4765C7.8702 10.4765 8.75392 10.1104 9.4055 9.45884C10.0571 8.80727 10.4231 7.92355 10.4231 7.00209C10.4231 6.08062 10.0571 5.1969 9.4055 4.54533C8.75392 3.89376 7.8702 3.52771 6.94874 3.52771C6.02728 3.52771 5.14356 3.89376 4.49199 4.54533C3.84041 5.1969 3.47437 6.08062 3.47437 7.00209C3.47437 7.92355 3.84041 8.80727 4.49199 9.45884C5.14356 10.1104 6.02728 10.4765 6.94874 10.4765Z" fill="white"/>
</svg>
