<svg width="19" height="19" viewBox="0 0 19 19" fill="none" xmlns="http://www.w3.org/2000/svg">
<path d="M15.7536 2.74951C14.9042 1.8915 13.8925 1.21121 12.7774 0.74832C11.6623 0.285427 10.4662 0.0491939 9.2589 0.0533999C4.20022 0.0533999 0.077309 4.17631 0.077309 9.23499C0.077309 10.8564 0.503498 12.4314 1.30029 13.8211L0.00318909 18.5833L4.8673 17.3048C6.21072 18.0367 7.72091 18.4258 9.2589 18.4258C14.3176 18.4258 18.4405 14.3029 18.4405 9.24425C18.4405 6.78903 17.4862 4.48206 15.7536 2.74951ZM9.2589 16.8693C7.88768 16.8693 6.54426 16.4987 5.36761 15.8039L5.08966 15.6371L2.19899 16.3968L2.96798 13.5803L2.78268 13.293C2.02086 12.0765 1.61635 10.6704 1.61529 9.23499C1.61529 5.02869 5.04333 1.60065 9.24963 1.60065C11.2879 1.60065 13.2058 2.39744 14.6418 3.84277C15.3529 4.55058 15.9164 5.39249 16.2997 6.31969C16.683 7.2469 16.8784 8.24096 16.8747 9.24425C16.8932 13.4506 13.4652 16.8693 9.2589 16.8693ZM13.4467 11.1621C13.215 11.0509 12.0847 10.495 11.8809 10.4116C11.6678 10.3375 11.5196 10.3005 11.362 10.5228C11.2045 10.7544 10.7691 11.2733 10.6394 11.4215C10.5097 11.579 10.3707 11.5976 10.1391 11.4771C9.90744 11.3659 9.16625 11.1158 8.29534 10.3375C7.60973 9.72603 7.15575 8.97557 7.01677 8.74394C6.88706 8.51232 6.99824 8.39188 7.11869 8.27143C7.2206 8.16952 7.35031 8.00275 7.46149 7.87304C7.57267 7.74333 7.619 7.64141 7.69312 7.49317C7.76724 7.33567 7.73018 7.20596 7.67459 7.09478C7.619 6.9836 7.15575 5.85327 6.97045 5.39002C6.78515 4.94531 6.59058 5.0009 6.45161 4.99163H6.00689C5.84939 4.99163 5.6085 5.04722 5.3954 5.27884C5.19157 5.51047 4.59862 6.06637 4.59862 7.19669C4.59862 8.32702 5.4232 9.42029 5.53438 9.56853C5.64556 9.72603 7.15575 12.0423 9.45346 13.0336C10.0001 13.2745 10.4263 13.4135 10.7598 13.5154C11.3065 13.6914 11.8068 13.6636 12.2052 13.6081C12.6499 13.5432 13.5671 13.0522 13.7524 12.5148C13.947 11.9774 13.947 11.5234 13.8821 11.4215C13.8173 11.3196 13.6783 11.2733 13.4467 11.1621Z" fill="white"/>
</svg>
