<svg width="20" height="20" viewBox="0 0 20 20" fill="none" xmlns="http://www.w3.org/2000/svg">
<path fill-rule="evenodd" clip-rule="evenodd" d="M1.97957 4.72466C2.22139 3.32075 3.33729 2.28875 4.74566 2.07446C6.09511 1.86913 7.94634 1.66669 10 1.66669C12.0537 1.66669 13.9049 1.86913 15.2544 2.07446C16.6628 2.28875 17.7787 3.32075 18.0205 4.72466C18.189 5.70312 18.3334 6.94606 18.3334 8.33335C18.3334 9.72064 18.189 10.9636 18.0205 11.942C17.7787 13.346 16.6628 14.378 15.2544 14.5923C14.0198 14.7801 12.3653 14.9655 10.5201 14.9957L5.42396 18.0071C4.86845 18.3353 4.16669 17.9349 4.16669 17.2896V14.4533C3.03882 14.0783 2.18715 13.1472 1.97957 11.942C1.81103 10.9636 1.66669 9.72064 1.66669 8.33335C1.66669 6.94606 1.81103 5.70312 1.97957 4.72466ZM5.00002 6.66669C5.00002 6.20645 5.37312 5.83335 5.83335 5.83335H14.1667C14.6269 5.83335 15 6.20645 15 6.66669C15 7.12692 14.6269 7.50002 14.1667 7.50002H5.83335C5.37312 7.50002 5.00002 7.12692 5.00002 6.66669ZM5.00002 10C5.00002 9.53978 5.37312 9.16669 5.83335 9.16669H9.16669C9.62692 9.16669 10 9.53978 10 10C10 10.4603 9.62692 10.8334 9.16669 10.8334H5.83335C5.37312 10.8334 5.00002 10.4603 5.00002 10Z" fill="white"/>
</svg>
