<svg width="14" height="13" viewBox="0 0 14 13" fill="none" xmlns="http://www.w3.org/2000/svg">
<path d="M7.23588 10.9749L4.06235 12.8866C3.92215 12.9759 3.77559 13.0141 3.62264 13.0014C3.4697 12.9886 3.33588 12.9376 3.22117 12.8484C3.10647 12.7592 3.01725 12.6478 2.95353 12.5142C2.8898 12.3802 2.87706 12.2303 2.91529 12.0646L3.75647 8.45135L0.946173 6.02341C0.818722 5.90871 0.739193 5.77794 0.707585 5.63112C0.675468 5.4848 0.684899 5.34155 0.735879 5.20135C0.78686 5.06116 0.86333 4.94645 0.965291 4.85724C1.06725 4.76802 1.20745 4.71067 1.38588 4.68518L5.0947 4.36018L6.52853 0.957237C6.59225 0.804296 6.69115 0.68959 6.82523 0.613119C6.9588 0.536648 7.09568 0.498413 7.23588 0.498413C7.37608 0.498413 7.51321 0.536648 7.64729 0.613119C7.78086 0.68959 7.87951 0.804296 7.94323 0.957237L9.37706 4.36018L13.0859 4.68518C13.2643 4.71067 13.4045 4.76802 13.5065 4.85724C13.6084 4.94645 13.6849 5.06116 13.7359 5.20135C13.7869 5.34155 13.7965 5.4848 13.7649 5.63112C13.7328 5.77794 13.653 5.90871 13.5256 6.02341L10.7153 8.45135L11.5565 12.0646C11.5947 12.2303 11.582 12.3802 11.5182 12.5142C11.4545 12.6478 11.3653 12.7592 11.2506 12.8484C11.1359 12.9376 11.0021 12.9886 10.8491 13.0014C10.6962 13.0141 10.5496 12.9759 10.4094 12.8866L7.23588 10.9749Z" fill="#F79900"/>
</svg>
